<svg id="Layer_1" data-name="Layer 1" xmlns="http://www.w3.org/2000/svg" viewBox="0 0 465.12 463.73"><defs><style>.cls-1{fill:#769559;}</style></defs><path class="cls-1" d="M75.8,455.19c2.31-17.8,5.72-34.91,11.9-51.32,27.89-74.13,79.61-123.08,155.4-146.34a212.36,212.36,0,0,1,77.47-8.65c63.11,4.39,116.46,29.76,159.1,76.73a226.65,226.65,0,0,1,54.92,108.23,208.13,208.13,0,0,1,4.77,44.52c-.09,8.36-2.66,11-11.1,11q-121.45,0-242.91,0-99.21,0-198.42,0c-10.14,0-12.16-2.15-12.31-12.28-.1-7.18.54-14.29,1.18-21.87m78.34-42.62a158.19,158.19,0,0,0-13.9,55.3c-.17,2.86.2,4.82,3.84,4.81q43.72-.1,87.43,0c2.6,0,3.7-1,4.24-3.68,6.18-31.19,24.89-50.67,55.58-58.6,3.4-.88,5.28-2.27,6.53-5.69,7.1-19.36,14.52-38.62,21.77-57.93,3.85-10.24,7.59-20.51,11.49-31.08-19.86-3.94-39.08-2.89-58,1.32-55,12.22-94.42,44.12-119,95.57m308.5,6.19c-18-43.62-48.85-74.29-92.51-93.09-.73,2.52-1.22,3.76-1.44,5.05q-7.67,44.71-15.28,89.44c-.52,3.07.44,5.26,2.78,7.45a70.33,70.33,0,0,1,22.08,40.46c.61,3.55,2.17,4.64,5.64,4.63q42.48-.13,85,0c4.12,0,5.14-1.48,4.92-5.3-.95-16.61-4.93-32.51-11.17-48.68m-197,25.4a54.51,54.51,0,0,0-13.21,28.08c1.87.19,3,.39,4.14.4,33.5,0,67,0,100.5.06,3.85,0,5-1,3.87-5-5.6-20.54-18.56-34.25-38.82-40-21.57-6.13-40.4-.16-56.48,16.48m239.17-48.57c-1.46-3.18-3.08-6.3-4.34-9.55-1.61-4.15-3.66-5.3-7.78-2.63C487,387.13,481,390.47,475,393.68c-3.19,1.7-3.78,3.34-2.09,6.67a168.45,168.45,0,0,1,13.7,39,210,210,0,0,1,4.29,29.05c.3,3.47,1.92,4.42,5.18,4.33,6.66-.19,13.34-.3,20,0,4.63.23,6.09-1.28,5.83-6-1.38-24.53-7.21-48-17.07-71.2M139,404.65c.87-1.8,1.75-3.59,2.6-5.4,1-2.13.66-3.7-1.57-4.94q-10.23-5.74-20.33-11.72c-2.4-1.42-3.88-1-5.13,1.54-13.2,26.54-21.08,54.48-22.45,84.17-.15,3.29,1.13,4.46,4.34,4.39,6.32-.13,12.65,0,19,0,7.47,0,7.66,0,8.12-7.23,1.34-21,6.78-40.9,15.44-60.78M256.78,271.38c-1.12.3-2.24.62-3.37.91a226.24,226.24,0,0,0-42,15.59c-3.49,1.68-4.27,3.3-2.05,6.79,3.85,6,7.33,12.31,10.73,18.6,1.53,2.83,3.11,3.19,6,1.85,5.72-2.66,11.57-5.12,17.48-7.33a182.88,182.88,0,0,1,50.57-10.72c3.69-.28,4.77-1.82,4.65-5.35-.23-6.66-.28-13.34,0-20,.2-4.34-1.13-5.9-5.65-5.64a214.44,214.44,0,0,0-36.3,5.29m165,65.25a182.67,182.67,0,0,1,40.55,44.86l26.76-15.56A216.3,216.3,0,0,0,422.05,299c-4.86,8.44-9.39,16.35-14,24.22-1.25,2.15-.24,3.3,1.46,4.49,4,2.77,7.83,5.64,12.29,8.92M190.48,338l16.93-12.71L192.05,299a216.84,216.84,0,0,0-66.93,66.88c7.58,4.43,14.71,8.34,21.54,12.71,3.83,2.45,6,1.82,8.43-1.91A174.52,174.52,0,0,1,190.48,338m162.65-67.5c-12.31-2.45-24.65-4.59-37.78-4.29,0,6.81-.07,13.1,0,19.4.19,14-1.94,10.15,11.44,11.94,9.95,1.33,10,.8,14.41-8.31a17.27,17.27,0,0,1,20.87-9.26,17.52,17.52,0,0,1,11.85,19.57c-.47,2.9-.83,5.82-1.24,8.7,5.37,2.47,10.43,4.59,15.28,7.11,3,1.55,4.4.74,5.88-2,3.36-6.12,6.85-12.18,10.56-18.1,2.25-3.58,2.1-5.53-2.13-7.56a233.12,233.12,0,0,0-49.15-17.22m-6.45,87.88,10.23-60.28a3.55,3.55,0,0,0-1.57,2q-11,29.2-22,58.41-8.52,22.68-16.93,45.39c-.69,1.88-2.34,4.72,1,5.3,6.53,1.13,12.75,3.33,19.6,5.39C340.26,395.76,343.42,377.48,346.68,358.34Z" transform="translate(-74.61 -25.62)"/><path class="cls-1" d="M309,144.65c55.14,0,109.78,0,164.42,0,12.89,0,21.68-6.7,24.57-18.45C501,113.77,492,100.57,479.28,99.3c-5.95-.59-12-.33-18-.3-4.25,0-7.1,2-7.17,6.54s3,6.63,7,7c4.3.38,8.66.07,13,.16,5.78.12,9.16,3.18,9.23,8.25s-3.34,8.26-9,8.38c-4.66.09-9.33.07-14,0a23.81,23.81,0,0,1-23.59-23.56c0-13,10.3-23.88,23.2-24,8-.07,16-.81,23.89.88,20.49,4.37,33.46,22.41,31.49,44-1.75,19.15-19.32,34.68-39.51,34.7q-102.7.08-205.4,0c-1,0-2,0-3,0-5.22-.3-8.72-3.71-8.65-8.42s3.53-8.17,8.8-8.21C281.18,144.6,294.84,144.66,309,144.65Z" transform="translate(-74.61 -25.62)"/><path class="cls-1" d="M325.43,55.08c-3.05-16,7.69-29.34,23.42-29.34,8.79,0,17.6-.81,26.3,1.76a40.16,40.16,0,0,1,28,43.67c-2.76,19.22-19.36,34.11-38.51,34.13q-95.73.12-191.47,0c-8,0-12.47-5.17-9.88-11.43a7.87,7.87,0,0,1,7.76-5.22c4.34,0,8.67,0,13,0q88.48,0,177,0c13.39,0,22.32-6.93,24.94-19.17s-6.23-24.85-18.55-26.15c-6.1-.64-12.31-.34-18.47-.33-4.37,0-7.18,2.49-7.16,6.71s3.16,6.54,7.24,6.84,8.33.06,12.49.14c6.12.1,9.72,3.22,9.75,8.35s-3.59,8.21-9.71,8.29c-4.17.06-8.34,0-12.5,0C337.35,73.26,329.09,67,325.43,55.08Z" transform="translate(-74.61 -25.62)"/><path class="cls-1" d="M340,200.66c53.31,0,106.13,0,158.94,0,16.73,0,29.35,7.5,36.51,22.52,7.42,15.57,5,30.45-6.05,43.77a34.8,34.8,0,0,1-14.12,10c-12.35,4.9-25.24,4.58-37.83,1.94-10.79-2.26-18.09-14.54-16.61-25.39,1.6-11.7,11.21-20.61,22.63-20.87,5.16-.11,10.33-.15,15.49,0s8.49,3.71,8.36,8.6c-.13,4.62-3.39,7.8-8.46,8-4.32.14-8.66-.06-13,.1-4.94.18-7.87,3-7.78,7.26.09,4,3,6.6,7.8,6.7,4.66.08,9.33-.12,14-.3,13-.5,22.71-10.15,22.77-22.45s-10-22.75-22.82-23.2c-6.15-.22-12.32-.06-18.49-.06H328.89c-2,0-4,.08-6-.06-4.88-.34-8.21-3.81-8.17-8.36a8.16,8.16,0,0,1,8.29-8.21C328.5,200.54,334,200.66,340,200.66Z" transform="translate(-74.61 -25.62)"/><path class="cls-1" d="M228.94,161.36l-140.8,0a51.81,51.81,0,0,1-6-.12,8.07,8.07,0,0,1-7.46-8.45,8.21,8.21,0,0,1,7.91-8.07c1-.09,2,0,3,0H232.4a29,29,0,0,1,3.49.08,8.3,8.3,0,0,1,0,16.51C233.77,161.46,231.59,161.33,228.94,161.36Z" transform="translate(-74.61 -25.62)"/><path class="cls-1" d="M227,217.35c-23.83,0-47.16,0-70.49,0-5.95,0-9.47-2.9-9.79-7.74-.34-5.17,3.3-8.86,9.09-8.9,12-.07,24,0,36,0,29.83,0,59.66,0,89.49,0,4.45,0,7.94,1.22,9.59,5.58,2.15,5.68-2.12,11.08-8.89,11.11C263.83,217.39,245.66,217.34,227,217.35Z" transform="translate(-74.61 -25.62)"/><path class="cls-1" d="M136.78,105.35c-17.6,0-34.74,0-51.87,0-6.65,0-10.18-2.92-10.22-8.22s3.54-8.43,10-8.44q26.21,0,52.4,0c6.61,0,10.16,2.93,10.21,8.27S144,105.07,136.78,105.35Z" transform="translate(-74.61 -25.62)"/><path class="cls-1" d="M80.77,217c-4.82-2.05-7-5.41-5.77-10.11s4.78-6.34,9.53-6.29c12.33.12,24.66,0,37,.06,6.15,0,9.74,3.15,9.79,8.27s-3.56,8.36-9.64,8.37C108.18,217.32,94.68,217.21,80.77,217Z" transform="translate(-74.61 -25.62)"/></svg>