<svg id="Layer_1" data-name="Layer 1" xmlns="http://www.w3.org/2000/svg" viewBox="0 0 512 368.14"><defs><style>.cls-1{fill:#769559;}</style></defs><path class="cls-1" d="M563,370.56c-7.45,10.07-13.38,20.72-20.2,30.77-2.48,3.64-5.52,5.93-10.06,4.38-5.15-1.77-6.64-7.6-3.49-12.9,2.69-4.51,6.3-8.5,8.26-14-4.89-.69-8.85.84-12.55,3-3.45,2-6.68,4.38-10,6.62-16.61,11.3-37.37,11.39-53.89,0-8-5.51-15.86-11-26.39-10.21-5.45.42-10.51,1.59-15.08,4.59-5.56,3.66-10.77,7.88-17,10.51-2.33,1-2.37,2.94-2.36,5,0,7.67.07,15.33,0,23-.15,14.24-10.77,22.37-24.54,18.59-11.22-3.09-22.39-6.4-33.51-9.85-3.37-1-5.31-.68-7.38,2.56-4.66,7.28-12.09,9.87-20.43,7.55q-17.55-4.89-35-10.18c-3-.93-4.75-.52-6.6,2.25-5.17,7.74-12.25,10.4-21.24,7.83q-36.47-10.43-72.82-21.27c-9.07-2.71-13.78-9.37-13.95-19.08-.16-8.67-.13-17.34,0-26a8.33,8.33,0,0,0-3-6.94c-12.78-11.56-12.77-28.62.08-40.19a8.34,8.34,0,0,0,2.87-7c-.07-14.16,0-28.33,0-42.49,0-1.33,0-2.67,0-4,.36-6,3.41-9.47,8.18-9.43s8,3.38,8.11,9.47c.21,10.82.06,21.66.07,32.49a27.23,27.23,0,0,1,0,3.5c-.95,7,.32,11.64,8.52,14.27,10.18,3.26,15.84,14.32,15.06,24.72-.87,11.47-8,20.75-19,23.71-3.78,1-4.71,2.72-4.62,6.21.19,6.66.19,13.33,0,20-.08,3.33,1,5.16,4.39,6.12q34.31,9.82,68.53,19.94c4.41,1.3,5.67-.32,5.65-4.55-.11-18.49,0-37,0-55.49q0-133.73,0-267.46c0-7.93-.41-8.28-7.82-6.14-21.74,6.28-43.45,12.66-65.2,18.9-3.59,1-5.77,2.46-5.62,6.8.14,3.83.93,5.82,5.1,7,11.54,3.26,18.75,13.6,18.59,25.5-.14,11.48-7.63,21.29-19.16,24.57-3.35.95-4.48,2.53-4.45,5.94.13,19.49.06,39,.06,58.49a20.82,20.82,0,0,1-.86,7.4,7.28,7.28,0,0,1-7.19,5.17,7.48,7.48,0,0,1-7.43-4.88c-1-2.21-.9-4.54-.9-6.87,0-21-.05-42,.06-63a9,9,0,0,0-3.41-7.68,26,26,0,0,1,.2-39.52c2.21-1.92,3.41-3.87,3.18-6.83a64.71,64.71,0,0,1,0-7.5c.41-10,5.14-16.23,14.68-19q35.43-10.45,70.9-20.72c10.1-2.93,16.72-.64,22.91,8.07,1.56,2.2,3,2.68,5.43,1.82a64.19,64.19,0,0,1,7.21-2,7.71,7.71,0,0,1,9.45,5.25,7.49,7.49,0,0,1-4.59,9.73,107.22,107.22,0,0,1-11.44,3.51c-2.82.75-4.34,2.22-4,5.29a38.11,38.11,0,0,1,0,4q0,147.72-.12,295.46c0,5.31,1.49,7.56,6.71,8.85,11.3,2.79,22.4,6.39,33.59,9.61,5.44,1.56,6.19,1,6.2-4.58q.06-33.24,0-66.49,0-127.72.05-255.46c0-4.58.43-8.51-6.34-8.4-3.78.06-6.06-3.47-6.23-7.33-.16-3.64,1.75-6.32,5.3-7.64,7.25-2.7,15.49.12,20.39,7.53,1.92,2.9,3.64,3.54,6.94,2.52,11.12-3.45,22.32-6.66,33.54-9.78,14.32-4,24.83,4.09,24.88,19.09.05,17,0,34,0,50.95,2.25.62,3.42-.85,4.59-1.81,18.55-15.18,44.14-15,63.06.3,8.81,7.15,18.87,8.66,29.67,5.69,4.58-1.26,8.4-4.06,12.12-6.86a52.09,52.09,0,0,1,23.52-10.18c-4.43-3-8.21-5.54-12-8.06-4.64-3.09-6-7.94-3.45-12s7-4.76,11.82-1.59c11,7.21,22.47,13.69,33.11,22a39.84,39.84,0,0,1,0,8c-2,3.26-3.88,5.84-5.61,8.48-5,7.66-9.92,15.41-15.08,23-2.85,4.17-7.24,5.1-10.85,2.76-3.78-2.45-4.76-7.06-2.33-11.45,1-1.89,2.38-3.63,3.44-5.51,1.73-3.07,4.27-5.73,5.35-9.26-2.06-.67-3.65-.19-5.29.14-6.28,1.24-11.14,5.08-16.13,8.68-16.8,12.12-38,12.49-55.19.93-2.63-1.77-5.13-3.74-7.85-5.34-11.87-7-23.65-7-35.21.76-4.43,3-8.53,6.51-13.52,8.47-3.38,1.34-4.27,3.46-4.24,6.89.14,16.5,0,33,.09,49.49,0,1.24-.54,2.65.58,3.74a2.47,2.47,0,0,0,1-.12c1.4-.89,2.81-1.78,4.14-2.78a49.52,49.52,0,0,1,35.55-10.13c11.28,1,19.9,6.91,28.77,12.85,10.84,7.27,22.29,7.69,33.42,1.06,9.19-5.47,17.47-12.56,29.71-14-5.14-3.41-9.24-6-13.15-8.77s-4.91-7.86-2.48-11.42,6.89-4.66,11.07-1.94c11.44,7.45,23.32,14.24,34.08,22.7,0,2.37,0,4.74-.26,7.76a24.76,24.76,0,0,1-1.46,2.24q-9.45,14.43-18.88,28.87c-2,3-4.73,4.79-8.41,4.2a7.29,7.29,0,0,1-6.09-5.3c-.89-3-.15-5.82,1.63-8.52,2.79-4.24,6.09-8.22,7.79-13.09-1.88-1.3-3.43-.51-5-.2-6.3,1.21-11.17,5.09-16.13,8.7-12.6,9.15-26.49,11-41.32,7.51-8.33-2-14.68-7.65-21.76-12-11.63-7.12-23.31-6.83-34.79.52-4.35,2.78-8.46,6-13.08,8.25-3.72,1.78-5.06,3.88-5,8,.22,16.17.08,32.33.13,48.5,0,1.39-.58,3,.72,4.17a3.51,3.51,0,0,0,1-.27c2.22-1.48,4.44-3,6.6-4.5,12.38-8.84,26-10.32,40.47-7,8,1.86,14.31,6.93,20.95,11.39,10.29,6.89,21.3,7.78,32.16,2,10-5.28,18.29-13.67,31.24-14.81-5.29-3.52-9.54-6.14-13.56-9.09-3.63-2.67-4.51-7.78-2-11.13,2.63-3.51,6.28-4.75,10.11-2.36,11.85,7.41,23.93,14.5,35,23.12,0,2.37,0,4.74-.26,7.77-2,3.26-3.89,5.83-5.62,8.48-4.93,7.52-9.74,15.12-14.76,22.59-3,4.43-7.45,5.57-11.14,3.17s-4.8-7.07-2.38-11.44c1-1.88,2.38-3.61,3.48-5.48,1.8-3.06,4.22-5.8,5.39-9.26-1.65-.73-2.93-.32-4.24-.11-6.69,1.07-11.86,5-17.16,8.81-14.79,10.53-30.68,11.87-47.38,5.47-5.49-2.11-9.94-6.05-14.8-9.25-11.68-7.7-24.51-7.64-36.06.13-4.84,3.25-9.45,6.87-14.84,9.19-2.42,1.05-3,2.78-3,5.17.08,3.66.18,7.34-.09,11-.33,4.56-3.47,7.69-7.53,8s-7.33-2.43-8.18-7.1a36.75,36.75,0,0,1-.46-6.46q-.06-21.24,0-42.49,0-94.21,0-188.45c0-6.85-.52-7.24-7.19-5.31-11.35,3.29-22.65,6.73-34.05,9.83-3.53,1-4.72,2.62-4.72,6.26q.12,150.47,0,300.92c0,3.58,1.1,5.36,4.66,6.34,11.55,3.15,23,6.63,34.52,9.95,6.08,1.76,6.74,1.31,6.75-4.9,0-17.5,0-35,0-52.49a31.8,31.8,0,0,1,.79-7.41,6.52,6.52,0,0,1,6-5.22c3.42-.39,6.26.54,8.14,3.63,1.26,2.09,1.29,4.4,1.4,6.75.18,3.84-.67,7.77.68,12,2.31-1.59,4.26-2.84,6.11-4.22,12.76-9.55,27-11.55,42.16-8,8,1.88,14.2,7.13,20.91,11.45,11.63,7.48,23.56,7.74,35.16.15,8.48-5.54,16.58-11.63,28-13-4.62-3.07-8.36-5.5-12-8-4.7-3.21-6.13-8-3.64-11.95s7.27-4.77,12.28-1.57c8.42,5.38,16.78,10.85,25.14,16.33,2.91,1.9,6.07,3.55,7.87,6.76v6.56M168.39,149.18c1.85,6.25,5.67,9.64,10.54,9.35a10.82,10.82,0,0,0,9.58-8.13,10,10,0,0,0-8.2-12.11c-6.47-1-11,2.85-11.92,10.89m4.52,189.13c-3.91,3.07-5.61,6.91-3.86,11.79a9.33,9.33,0,0,0,8.95,6.66c4.65.22,8.05-1.81,9.87-6.07,1.63-3.8,1.26-7.57-1.69-10.61C182.58,336.36,178.3,335.43,172.91,338.31Z" transform="translate(-51 -72.91)"/><path class="cls-1" d="M51,355.46c4.11-10,10.33-17,21-19.12,11.76-2.37,24.62,4.57,29.07,16a26.22,26.22,0,0,1-10.73,32.19c-10.92,6.59-25.24,4.41-33.17-5a35.93,35.93,0,0,1-6.09-11.2C51,364,51,360,51,355.46m34.92,2.38c-2.15-4.5-5.84-6.16-10.62-5.6-4.5.52-7.08,3.32-8.41,7.45s.41,7.2,3.19,9.83c3.41,3.24,7.43,3.45,11.53,1.42C86,368.78,87.3,365.05,85.92,357.84Z" transform="translate(-51 -72.91)"/><path class="cls-1" d="M51,152.46a57,57,0,0,1,4.76-8.59,26.05,26.05,0,0,1,29.83-9.09c10.46,3.61,18,14.5,17.56,25.41-.45,11.4-8.36,21.66-19.48,24.46-12.33,3.1-26.41-1.65-32.48-18.36-.19-4.65-.19-9-.19-13.83m34.52,1.76c-4-4.95-8.69-6.27-13.44-3.79a10.17,10.17,0,0,0-5,11.74c1.79,5.6,7.12,8.64,12.39,7.08C85.58,167.42,87.93,162.17,85.52,154.22Z" transform="translate(-51 -72.91)"/><path class="cls-1" d="M89.49,282.72c8-11.26,18.78-15.32,30.5-11.69a25.89,25.89,0,0,1,18.27,24.74c-.1,11.2-5.36,19.47-15.52,24.11s-19.72,3.05-27.88-4.22-11.11-16.73-7.68-27.57a53.92,53.92,0,0,1,2.31-5.37m28.83,5.33c-4.19-2.72-8.44-2.93-12.51.07-3.85,2.83-4.42,7-3.25,11.21,1.12,4.07,4.26,6.22,8.41,6.72s7.67-1.11,9.62-4.77C123,296.81,122.84,292.34,118.32,288.05Z" transform="translate(-51 -72.91)"/><path class="cls-1" d="M143.27,216.41c2,19.78-13.79,30.3-26.25,30-13.59-.34-24.24-10.23-25.93-24.74-1.32-11.37,7.77-23.68,19.48-26.89,13.64-3.73,30.23,5.12,32.7,21.65M111.9,228.69c4.16,2.64,8.3,2.35,11.95-.75,3.08-2.61,4.56-6.17,3.36-10.27-1.29-4.38-4.21-7-8.91-7.44s-8.22,1.19-10.06,5.61C106.25,220.65,107,224.93,111.9,228.69Z" transform="translate(-51 -72.91)"/><path class="cls-1" d="M141.22,155.82c-2.19,4.11-5.21,6.23-9.49,4.85-5.16-1.66-6.07-6-5.95-10.79.11-4.28,1.44-7.86,6-9.23a7.59,7.59,0,0,1,9.49,5A16.3,16.3,0,0,1,141.22,155.82Z" transform="translate(-51 -72.91)"/><path class="cls-1" d="M132.41,368.86c-6.62-3.12-8.92-11.81-4.94-17.31,2.84-3.91,8.44-4.58,11.71-1.13,3.61,3.78,3.49,8.5,2,13.06C140,367.37,136.94,369.2,132.41,368.86Z" transform="translate(-51 -72.91)"/><path class="cls-1" d="M77.63,238.55a43,43,0,0,1-.17,5.82c-.59,4.42-3.27,6.79-7.69,6.87s-6.9-2.75-7.83-6.86a19.46,19.46,0,0,1-.2-4.95c.22-5,3-8.32,7.15-8.71C73.56,230.29,76.43,232.75,77.63,238.55Z" transform="translate(-51 -72.91)"/><path class="cls-1" d="M205.51,214c6,3.39,7.79,12.48,3.84,17.38a7.87,7.87,0,0,1-11.15,1.12c-3-2.5-4.08-9.46-2.08-14.05C197.82,214.52,201,213.2,205.51,214Z" transform="translate(-51 -72.91)"/><path class="cls-1" d="M145.85,269.08c-4.54,1.72-7.87.61-10.11-3.22s-1.43-12,1.3-14.55a7.47,7.47,0,0,1,9.18-1.2C152.05,253.1,152,264,145.85,269.08Z" transform="translate(-51 -72.91)"/><path class="cls-1" d="M193.13,272.77c2.14-4.84,5.79-6,10.06-4.8s5.35,4.59,5.17,8.63c-.06,1.33,0,2.67-.05,4-.33,4.31-3.7,7.74-7.73,7.57-4.42-.19-7.13-2.78-7.74-7.05C192.47,278.52,192.9,275.82,193.13,272.77Z" transform="translate(-51 -72.91)"/></svg>