<svg id="Layer_1" data-name="Layer 1" xmlns="http://www.w3.org/2000/svg" viewBox="0 0 512 424.72"><defs><style>.cls-1{fill:#769559;}</style></defs><path class="cls-1" d="M563,422.53c-3,13.86-8.92,25.58-19.89,34.18-17.17,13.47-36.26,16.53-56.33,8.07-19.07-8-29.92-23-33.3-43.57-1.54-9.37,0-18.21,3.14-26.93.95-2.66,1.23-4.91-.67-7.44q-23.25-31-46.33-62.09a20.5,20.5,0,0,0-1.79-1.91c-67.3,47.91-134.22,47.73-201.73-.29-5.45,7.24-11.06,14.64-16.61,22.09-10,13.49-20,27.09-30.14,40.48-2.46,3.24-3.12,5.92-1.69,10,13.19,37.33-14.53,75.23-54.08,74.21-23.19-.6-45-18-50.9-40.38-.38-1.44-.91-2.84-1.53-4.59-.15-7-.15-13.7-.15-20.85,2.29-5.8,3.53-11.55,6.56-16.6,11.35-18.92,28.1-28.35,50.09-28.06,4.84.07,8-1,10.73-5.24,3.76-5.88,8.21-11.32,12.48-16.86,3.64-4.74,8.13-5.74,12.06-2.9s4.4,7.3,1,12.3c-4.12,6-9.05,11.43-12.94,18.29a71.88,71.88,0,0,1,14.47,10.85c2.16-.53,2.93-2.13,3.89-3.42,14.23-19.1,28.39-38.26,42.68-57.33,1.93-2.58,2.15-4.48-.16-6.93-3.51-3.72-6.71-7.73-10.32-11.94-5.22,7-10.16,13.63-15.18,20.23-3.59,4.72-8.22,5.89-12,3.17-4.17-3-4.52-7.42-.72-12.68,5-6.88,10-13.75,15.22-20.44,2.43-3.1,3-5.61.89-9.36a150.19,150.19,0,0,1-18.75-87.1c4-47.23,25.28-85.39,63.14-113.89,28.81-21.7,61.72-31.84,97.66-30.69,41.74,1.33,77.62,17,107.21,46.65,2.41,2.42,4.58,5,4,8.7A7.82,7.82,0,0,1,410,105c-4.85-4.06-9.2-8.72-14.11-12.69-77.3-62.49-192.8-27.79-223.08,67-25.49,79.78,25.5,164.9,108.16,180.55A140.85,140.85,0,0,0,445.33,228.61c6.39-32.61,1.61-63.92-13.9-93.46-.62-1.18-1.29-2.34-1.84-3.55-2.11-4.59-1.13-8.8,2.51-11,3.81-2.28,8.47-1,11.16,3.28a110,110,0,0,1,9.45,19.27c17.33,45.51,14.91,89.94-7.81,133.07-2.09,3.95-2.08,6.54.67,10.18,17.18,22.72,34.11,45.64,51.09,68.51,1.62,2.2,3.06,4.17,6.36,3.88,25.6-2.27,52.5,13.31,59.84,44.86C563,410,563,416,563,422.53M134.37,387.14c-13.5-13.3-31-16.14-47.17-7.73-11.88,6.19-23.49,22-20,41.15,2.89,15.8,15.74,29.23,31.15,32A39.54,39.54,0,0,0,140,433.13c8.31-14.91,6.32-32.53-5.6-46M545.75,402.8c-.57-1.56-1-3.16-1.71-4.68a39.23,39.23,0,0,0-48.69-21.25c-19.08,6.65-30.29,27.26-25.23,46.37,5.74,21.68,26.53,33.85,48.19,28.56,19-4.63,34.23-26.57,27.44-49m-71.67-51.42L432.76,295.9c-3.61,4.12-6.37,7.66-9.55,10.77s-2.95,5.58-.35,9c12.36,16.32,24.48,32.82,36.74,49.21,2.66,3.55,4.84,7.52,8.49,10.57,4.28-3.5,8.21-7.08,12.88-9.67,2.33-1.3,1.54-2.94.34-4.57C479.05,358.12,476.78,355,474.08,351.38Z" transform="translate(-51 -44.78)"/><path class="cls-1" d="M292.69,239.44c-17.86-12.09-25.79-28.78-22.41-49.57,3.44-21.09,16.61-34.49,37.33-39.61,26.07-6.45,53.28,11.17,58.59,37.39,5.54,27.39-12.65,54.33-39.63,58.46a48.86,48.86,0,0,1-33.88-6.67m-4.76-29c6.37,13.26,16.66,20.64,31.6,20.17,13.4-.42,23.21-7.21,28.61-19.27,5.49-12.23,4-24.24-4.71-34.65S323.51,163.27,310.58,166C293.32,169.64,280,189.53,287.93,210.46Z" transform="translate(-51 -44.78)"/><path class="cls-1" d="M231,149.21a50.39,50.39,0,0,1,24.65,6.9c5.42,3.25,7.19,7.6,4.71,11.93s-7,5-12.59,2C227.27,159,204.37,168.5,199,190.76c-2.92,12.13.63,22.9,9.95,31.21,8.91,7.95,19.32,10.83,31,6.94a25.86,25.86,0,0,0,9.91-6.54c4-3.91,8.68-4.19,12-1s3.17,7.8-.53,12c-11.12,12.71-32.46,16.67-49.33,9.32-20.88-9.1-31-28.77-29.8-46.69,1.6-24,16.12-40.64,38.45-45.76C223.88,149.59,227.25,149.56,231,149.21Z" transform="translate(-51 -44.78)"/><path class="cls-1" d="M423.14,205.42c-3.43,12.49-12.31,21.25-19,32,4.11,1.15,8.07.29,11.93.52s7.32.84,9.25,4.69c2.67,5.33-.95,11.35-7.48,11.5-9.81.24-19.65.65-29.44-.49-8.15-1-10.94-7.08-6.22-13.93,5.19-7.54,10.77-14.81,16.13-22.23,2.63-3.65,5.37-7.24,7.66-11.09,2.94-5,1.81-9.64-2.39-11.56s-7.59-.09-10.07,5.26c-2.36,5.09-6,7.08-10.16,5.54-4.71-1.74-6.43-5.94-4.7-11.45,3.26-10.39,14.24-17.7,24.17-16.1,12.84,2.06,20.58,10.71,20.52,23C423.35,202.33,423.27,203.66,423.14,205.42Z" transform="translate(-51 -44.78)"/></svg>