<svg id="Layer_1" data-name="Layer 1" xmlns="http://www.w3.org/2000/svg" viewBox="0 0 410.67 398.23"><defs><style>.cls-1{fill:#769559;}</style></defs><path class="cls-1" d="M110.47,59a35.1,35.1,0,0,1,8.8-1.08q39,.06,78,0a32.19,32.19,0,0,1,5.47.4c7.91,1.33,11.61,5.6,11.64,13.65.07,17.83,0,35.66,0,53.49q0,156.73,0,313.45c0,12.65-4.49,17.16-17.07,17.18q-39,0-78,0c-12.71,0-17.64-4.93-17.64-17.46q0-182-.06-364c0-6.91,1.8-12.48,8.85-15.71m73.09,44.44c-3.72-1.26-5.34-4-4.71-7.72.66-3.93,3.62-5.33,7.24-5.67,1-.09,2-.08,3-.1,11.7-.16,11.49-.16,11.78-11.59.12-4.77-1.27-6.36-6.15-6.31q-36.5.3-73,0c-5,0-6.48,1.38-6.48,6.47q.21,178.49.11,357c0,6.46,0,6.49,6.75,6.49,22,0,44,.13,66,0,14.86-.11,12.34,2.61,12.73-13.07.08-3.43-1.14-4.84-4.61-4.76a79.74,79.74,0,0,1-11.46-.4c-3.73-.47-6.05-2.85-6-6.79s2.52-6,6.2-6.65a25.21,25.21,0,0,1,4-.29c11.86-.21,11.64-.21,11.92-12,.12-4.72-1.51-6.08-6-6-8.82.26-17.66.13-26.49,0-3.63,0-7.12-.77-8.44-4.84-1.6-4.92,1.45-8.85,7.48-9.13,6.82-.31,13.66,0,20.49-.16,15.2-.29,12.51,2.68,12.92-13.4.08-3.25-1.22-4.54-4.4-4.43s-6.34.12-9.49-.08c-5.28-.33-8.14-2.86-8.2-6.94s2.76-6.64,8-7.07c1.16-.1,2.33-.06,3.49-.07,12-.14,10.41,1.52,10.51-10.76.05-7.07,0-7.06-7.18-7.07-8.5,0-17,.12-25.5-.09-6-.14-8.68-2.79-8.39-7.56.25-4.14,2.86-6.32,8.5-6.44,8.5-.18,17-.06,25.5-.07,7.08,0,7.15,0,7.07-7.19-.15-11.87,1.84-10.52-10.62-10.65-8-.09-11.54-2.36-11.41-7.31.13-4.77,3.5-6.78,11.3-6.88,12.1-.14,10.64,1.63,10.72-10.53.06-7.27,0-7.27-7.47-7.27-8.33,0-16.66,0-25-.07-3.63-.05-7.12-.8-8.39-4.91-1.52-4.93,1.53-8.8,7.59-9.06,6.82-.3,13.66,0,20.49-.15,15-.31,12.47,2.8,12.84-13.47.08-3.31-1.35-4.45-4.47-4.38a89.55,89.55,0,0,1-10.49-.2c-4-.37-7.07-2.34-7.08-6.87s2.88-6.45,7-6.92c1-.11,2-.12,3-.14,12.09-.25,11.89-.26,12.1-12.3.07-4.56-1.63-5.73-5.83-5.62-8.66.23-17.33.15-26,0-6.58-.08-9.39-2.33-9.37-7.14s2.8-6.85,9.53-7c6.33-.1,12.67.07,19,0,14.74-.28,12.23,2.61,12.61-13.2.09-3.54-1.35-4.77-4.71-4.64a77.42,77.42,0,0,1-10-.15c-4.83-.44-7.58-3.21-7.37-7.16.24-4.52,3.17-6.29,7.26-6.73a29.77,29.77,0,0,1,3-.11c11.84-.19,11.61-.2,11.88-12,.11-4.82-1.7-6-6.09-5.87-8.82.24-17.66.12-26.49,0-3.63-.05-7.12-.82-8.4-4.91-1.54-4.93,1.52-8.82,7.56-9.09,6.82-.3,13.66,0,20.49-.16,15.05-.3,12.54,2.83,12.83-13.44a4.17,4.17,0,0,1,0-.5c.18-2.8-1.25-3.81-3.92-3.86C192.69,104,188.51,104.52,183.56,103.41Z" transform="translate(-101.62 -57.89)"/><path class="cls-1" d="M335,82c4.33-4.64,8.27-9.18,12.57-13.35,5.68-5.53,9.33-5.53,15,0C376.76,82.6,389,98.21,399.9,114.79c13.46,20.42,24.67,41.89,29.93,66,6.36,29.19,1,55.59-20.84,76.77-22.34,21.65-49.31,28.15-78.82,18s-46.56-31.62-51.54-62.44c-3.08-19,1.55-37.06,8.36-54.57,11.06-28.43,28.1-53.2,48-76.57m-26.6,62.83c-1.56,3.13-3.26,6.2-4.65,9.4-7.8,18-14,36.28-11.56,56.44,3.78,31,30,54.43,61.7,55.29,33.31.92,65.63-26.22,64.67-66-.32-13.4-3.88-26.31-9.13-38.66-12.19-28.71-29.87-53.8-50.74-76.76-1.08-1.19-2-2.75-4.5-2.92A294.1,294.1,0,0,0,308.37,144.81Z" transform="translate(-101.62 -57.89)"/><path class="cls-1" d="M431.91,358.8c12.82.9,23.56,5.25,32.87,13.74,10.17,9.27,22.19,11.57,35.34,7.11,1.11-.37,2.19-.84,3.32-1.1,4-.9,7,.5,8.38,4.35,1.28,3.65-.08,6.57-3.6,8.27-8.86,4.25-18.25,5.16-27.81,3.67-9.23-1.44-17.8-5-24.44-11.67-13.44-13.52-36.1-12.8-49.79-.47-19.35,17.41-45.54,16.6-64.92-.54-14.25-12.59-33.38-12.55-47.64.11-19.21,17-45.77,17.24-65.08.47a23.81,23.81,0,0,1-3.17-3.18c-2.23-2.83-2.45-5.86-.05-8.66,2.56-3,5.77-3,9-1.26a18.43,18.43,0,0,1,3.11,2.5c13.94,12.17,33,12.14,46.88-.1,19.95-17.6,46.15-17.68,66.25-.2,14.42,12.53,32.82,12.67,47.16,0C407.45,363.28,418.65,359.09,431.91,358.8Z" transform="translate(-101.62 -57.89)"/><path class="cls-1" d="M506.64,438c3.73,1.29,5.61,3.56,5.6,7.2s-2.36,5.15-5.4,6.3c-18.65,7.11-35.91,5.2-51.38-7.94-16-13.62-33.56-13.53-49.52.41a48,48,0,0,1-63.86-.4c-15.35-13.58-33.62-13.54-49.06.12-19,16.78-47.9,16.13-65.79-1.48-4-3.93-4.61-7.73-1.74-10.87s7.18-3.21,11,.83c11.74,12.3,34.94,13.21,49.67-.68,17.35-16.34,45-15.69,63,0,16.17,14.09,33.47,14.13,49.88.1,19-16.25,45.49-16.07,64.24.64,11.06,9.85,23.44,11.76,37.17,7.08C502.39,438.73,504.14,437.6,506.64,438Z" transform="translate(-101.62 -57.89)"/><path class="cls-1" d="M445.33,300.34a44.06,44.06,0,0,1,18,10.23c11.07,10.28,23.7,12.78,37.9,8,3.29-1.11,6.55-1.8,9.13,1.39,3.34,4.12,1.88,9-3.62,11.1-17.78,6.72-34.29,4.3-49.35-7.39-2-1.53-3.73-3.35-5.72-4.84a35,35,0,0,0-43.79,2.05c-17.19,15.35-39.68,17.83-58.66,6.5-3-1.78-5.68-3.81-5.3-7.74.48-5,5.68-7.39,10.71-4.93,4.49,2.2,8.86,4.42,13.94,5.21,10.53,1.64,19.95-.71,27.85-7.71,8.9-7.87,18.82-13,30.78-14C433.28,297.72,439.12,298.76,445.33,300.34Z" transform="translate(-101.62 -57.89)"/><path class="cls-1" d="M323.29,321c-.9,6.3-5.28,7.08-10,7.09-17.49.05-35,0-52.47,0h-5.41c0,2.79,1.88,3.61,3.06,4.84,4.39,4.56,9,8.9,13.29,13.56,2.67,2.91,3,6.4.14,9.43s-6.34,3.44-9.32.52q-15.69-15.39-31-31.16c-2.88-3-2.37-6.51.5-9.39q15-15.06,30.09-30c2.94-2.9,6.24-3,9.37-.23,2.93,2.55,3.09,6.43.09,9.75-3.56,4-7.43,7.64-11.2,11.4-1.87,1.87-4,3.54-5.23,6,1.48,1.75,3.44,1,5.13,1,17.65.06,35.31,0,53,.06C318,314,322.46,314.57,323.29,321Z" transform="translate(-101.62 -57.89)"/><path class="cls-1" d="M346.09,236c3.34.61,6.28,1.21,9.24,1.53,4.23.45,6.47,2.9,6.38,6.89-.11,4.38-3.13,6.66-7.26,6.68a45.35,45.35,0,0,1-22-5.7c-18.45-10-28.34-29.5-25.57-50.62,1.93-14.67,7.05-28.34,13.84-41.42,1.69-3.25,4.34-5.15,8.14-4.25,3.31.79,4.95,3.27,5.18,6.56.15,2-1,3.82-1.9,5.6a121.51,121.51,0,0,0-11.23,33.42C317.74,213.68,327.29,230,346.09,236Z" transform="translate(-101.62 -57.89)"/></svg>