<?xml version="1.0" encoding="UTF-8"?>
<svg version="1.1" xmlns="http://www.w3.org/2000/svg" width="120" height="120">
<path d="M0 0 C0.90814453 -0.020625 1.81628906 -0.04125 2.75195312 -0.0625 C11.94583254 -0.11514927 18.90773504 2.32571639 26.625 7.1875 C27.70394531 7.85652344 28.78289062 8.52554687 29.89453125 9.21484375 C32.53744078 11.05815816 34.71141552 12.813149 36.8125 15.25 C36.8125 15.91 36.8125 16.57 36.8125 17.25 C38.2975 17.745 38.2975 17.745 39.8125 18.25 C41.31074968 20.7154366 42.61784332 23.10276259 43.875 25.6875 C44.41060547 26.78022217 44.41060547 26.78022217 44.95703125 27.89501953 C50.40950199 39.367079 51.75581202 52.00858791 47.8125 64.25 C41.94345654 77.57822186 41.94345654 77.57822186 37.8125 82.25 C37.1525 82.25 36.4925 82.25 35.8125 82.25 C35.58175781 82.83523437 35.35101563 83.42046875 35.11328125 84.0234375 C33.48142042 86.8167128 31.66664355 88.05992328 29 89.875 C28.14792969 90.46539062 27.29585937 91.05578125 26.41796875 91.6640625 C21.77897513 94.48779775 18.26788904 95.6136926 12.8125 95.25 C11.8225 94.755 11.8225 94.755 10.8125 94.25 C10.8125 93.26 10.8125 92.27 10.8125 91.25 C9.8225 90.59 8.8325 89.93 7.8125 89.25 C7.8125 88.59 7.8125 87.93 7.8125 87.25 C7.1525 87.25 6.4925 87.25 5.8125 87.25 C5.565 87.848125 5.3175 88.44625 5.0625 89.0625 C3.03673998 92.60758004 0.63255844 93.97664719 -3.1875 95.25 C-10.23811082 95.72469459 -10.23811082 95.72469459 -13.1875 94.25 C-14.05904864 91.39765899 -14.25327404 89.55694552 -13.625 86.625 C-12.85537181 83.99391286 -12.85537181 83.99391286 -15.1875 81.25 C-15.97125 82.24 -16.755 83.23 -17.5625 84.25 C-18.42875 85.24 -19.295 86.23 -20.1875 87.25 C-20.8475 87.25 -21.5075 87.25 -22.1875 87.25 C-20.96276616 82.75930926 -19.5692121 80.40626462 -16.1875 77.25 C-16.1875 76.59 -16.1875 75.93 -16.1875 75.25 C-16.56261719 75.73210937 -16.93773437 76.21421875 -17.32421875 76.7109375 C-22.66017547 83.29687905 -22.66017547 83.29687905 -27.1875 84.25 C-29.5 83.875 -29.5 83.875 -31.1875 83.25 C-32.66492793 79.40868739 -31.5462688 77.0065961 -30.1875 73.25 C-30.1875 72.26 -30.1875 71.27 -30.1875 70.25 C-27.29915997 68.14229241 -25.80287605 67.25 -22.1875 67.25 C-22.1875 68.24 -22.1875 69.23 -22.1875 70.25 C-21.115 70.085 -20.0425 69.92 -18.9375 69.75 C-15.1875 69.25 -15.1875 69.25 -11.1875 69.25 C-10.6925 70.24 -10.6925 70.24 -10.1875 71.25 C-9.2903125 70.26 -9.2903125 70.26 -8.375 69.25 C-6.1875 67.25 -6.1875 67.25 -3.1875 67.25 C-3.87507295 71.74343448 -6.19648905 73.09971422 -9.69140625 75.6875 C-11.64856103 77.3709822 -11.64856103 77.3709822 -11.1875 81.25 C-10.259375 80.404375 -9.33125 79.55875 -8.375 78.6875 C-6.79296875 77.24609375 -6.79296875 77.24609375 -5.1875 76.25 C-3.7025 76.745 -3.7025 76.745 -2.1875 77.25 C-1.0325 77.20875 0.1225 77.1675 1.3125 77.125 C4.8125 77.25 4.8125 77.25 6.75 78.5625 C7.8125 80.25 7.8125 80.25 7.8125 83.25 C8.4725 82.92 9.1325 82.59 9.8125 82.25 C9.46805119 79.77733235 9.46805119 79.77733235 8.8125 77.25 C7.8225 76.755 7.8225 76.755 6.8125 76.25 C6.8125 73.94 6.8125 71.63 6.8125 69.25 C9.7825 68.26 9.7825 68.26 12.8125 67.25 C13.1425 64.94 13.4725 62.63 13.8125 60.25 C16.2875 59.755 16.2875 59.755 18.8125 59.25 C19.1425 56.94 19.4725 54.63 19.8125 52.25 C22.7825 51.755 22.7825 51.755 25.8125 51.25 C26.22665509 46.0297495 26.22665509 46.0297495 24.75 41.1875 C21.6709134 39.69761939 19.06393042 40.57517482 15.8125 41.25 C15.8125 43.56 15.8125 45.87 15.8125 48.25 C13.125 49.5 13.125 49.5 9.8125 50.25 C6.875 48.875 6.875 48.875 4.8125 46.25 C4.69216548 43.37291101 5.19406471 41.1043167 5.8125 38.25 C8.2875 37.755 8.2875 37.755 10.8125 37.25 C11.23021804 33.91799815 11.23021804 33.91799815 10.8125 30.25 C8.45417228 27.77791204 8.45417228 27.77791204 5.8125 26.25 C3.25559577 27.33255407 3.25559577 27.33255407 0.8125 29.25 C0.6475 30.260625 0.4825 31.27125 0.3125 32.3125 C0.1475 33.281875 -0.0175 34.25125 -0.1875 35.25 C-0.991875 35.559375 -1.79625 35.86875 -2.625 36.1875 C-3.470625 36.538125 -4.31625 36.88875 -5.1875 37.25 C-5.89241267 39.57206525 -6.55962429 41.90593068 -7.1875 44.25 C-9.38819462 46.0105557 -10.46049527 46.29406089 -13.25 46.125 C-15.89131503 44.93214805 -16.80935911 43.79956064 -18.1875 41.25 C-18.1875 39.25 -18.1875 37.25 -18.1875 35.25 C-18.6825 34.775625 -19.1775 34.30125 -19.6875 33.8125 C-22.08090815 31.31936651 -21.24782135 28.5676745 -21.1875 25.25 C-21.8475 24.59 -22.5075 23.93 -23.1875 23.25 C-23.3125 19.625 -23.3125 19.625 -23.1875 16.25 C-24.8375 16.58 -26.4875 16.91 -28.1875 17.25 C-27.77346686 11.97107745 -27.12586608 8.89298863 -23.1875 5.25 C-15.40863163 1.00308106 -8.73966141 0.04858742 0 0 Z M-4.1875 7.25 C-4.1875 8.24 -4.1875 9.23 -4.1875 10.25 C-0.95958445 12.4019437 0.09650809 12.45086443 3.8125 12.25 C4.1425 11.59 4.4725 10.93 4.8125 10.25 C4.4825 9.26 4.1525 8.27 3.8125 7.25 C-0.28973585 6.23459888 -0.28973585 6.23459888 -4.1875 7.25 Z M-14.1875 19.25 C-14.60530879 21.62305578 -14.60530879 21.62305578 -14.1875 24.25 C-12.08049553 26.34762034 -12.08049553 26.34762034 -9.1875 27.25 C-6.40526622 26.55514736 -6.40526622 26.55514736 -4.1875 25.25 C-3.9372843 22.33365871 -3.9372843 22.33365871 -4.1875 19.25 C-8.30202026 16.5069865 -10.07582698 16.98149075 -14.1875 19.25 Z M18.8125 21.25 C17.50503291 22.34923541 17.50503291 22.34923541 17.5 25.0625 C17.56404212 28.2917761 17.56404212 28.2917761 19.4375 30.6875 C21.79393482 32.5849284 21.79393482 32.5849284 25.0625 32 C25.97 31.7525 26.8775 31.505 27.8125 31.25 C28.23059201 28.41848027 28.23059201 28.41848027 27.8125 25.25 C25.66579312 22.76591299 25.66579312 22.76591299 22.8125 21.25 C21.4925 21.25 20.1725 21.25 18.8125 21.25 Z M21.8125 35.25 C22.8125 37.25 22.8125 37.25 22.8125 37.25 Z M35.8125 47.25 C34.00808808 51.92952614 34.00808808 51.92952614 34.6875 56.6875 C35.05875 57.203125 35.43 57.71875 35.8125 58.25 C37.1325 58.25 38.4525 58.25 39.8125 58.25 C40.00741452 56.79263913 40.19319358 55.33405407 40.375 53.875 C40.47941406 53.06289063 40.58382812 52.25078125 40.69140625 51.4140625 C40.99487328 49.20100814 40.99487328 49.20100814 39.8125 47.25 C38.4925 47.25 37.1725 47.25 35.8125 47.25 Z M23.0625 63.3125 C21.46467669 65.37458203 21.46467669 65.37458203 22 68.875 C22.268125 69.98875 22.53625 71.1025 22.8125 72.25 C23.4725 72.58 24.1325 72.91 24.8125 73.25 C25.8025 72.92 26.7925 72.59 27.8125 72.25 C29.23542198 68.89484416 29.23542198 68.89484416 29.8125 65.25 C29.1525 64.26 28.4925 63.27 27.8125 62.25 C24.89867835 61.99051093 24.89867835 61.99051093 23.0625 63.3125 Z M-26.1875 74.25 C-28.66480384 76.80988064 -29.1875 77.63813866 -29.1875 81.25 C-24.33707612 80.83424938 -22.34430495 78.83340022 -19.1875 75.25 C-18.5275 74.26 -17.8675 73.27 -17.1875 72.25 C-20.66434256 72.25 -22.9811343 72.91401429 -26.1875 74.25 Z M-4.1875 80.25 C-9.33146127 85.4262506 -9.33146127 85.4262506 -11.1875 92.25 C-10.03004513 93.61997745 -10.03004513 93.61997745 -6.875 93.5625 C-3.19771785 93.58138064 -3.19771785 93.58138064 -0.875 91.5 C1.54927458 88.2676339 2.8125 86.34056536 2.8125 82.25 C0.5025 81.59 -1.8075 80.93 -4.1875 80.25 Z M14.8125 85.25 C15.1425 86.9 15.4725 88.55 15.8125 90.25 C16.4725 90.25 17.1325 90.25 17.8125 90.25 C18.1425 88.93 18.4725 87.61 18.8125 86.25 C17.4925 85.92 16.1725 85.59 14.8125 85.25 Z " fill="#6CA64C" transform="translate(55.1875,0.75)"/>
<path d="M0 0 C0.90814453 -0.020625 1.81628906 -0.04125 2.75195312 -0.0625 C11.94583254 -0.11514927 18.90773504 2.32571639 26.625 7.1875 C27.70394531 7.85652344 28.78289062 8.52554687 29.89453125 9.21484375 C32.52128489 11.04689013 34.64556581 12.90467413 36.8125 15.25 C36.4825 15.91 36.1525 16.57 35.8125 17.25 C34.8225 16.59 33.8325 15.93 32.8125 15.25 C33.3075 16.735 33.3075 16.735 33.8125 18.25 C33 21.375 33 21.375 31.8125 24.25 C30.8225 24.745 30.8225 24.745 29.8125 25.25 C29.1525 25.91 28.4925 26.57 27.8125 27.25 C27.8125 26.59 27.8125 25.93 27.8125 25.25 C24.84562999 23.60173889 22.15623475 22.80728913 18.8125 22.25 C18.8125 24.56 18.8125 26.87 18.8125 29.25 C17.843125 29.37375 16.87375 29.4975 15.875 29.625 C14.864375 29.83125 13.85375 30.0375 12.8125 30.25 C12.4825 30.91 12.1525 31.57 11.8125 32.25 C11.02875 31.425 10.245 30.6 9.4375 29.75 C7.17528736 27.02011494 7.17528736 27.02011494 4.8125 27.25 C2.66396564 27.78195637 2.66396564 27.78195637 0.8125 29.25 C0.668125 30.24 0.52375 31.23 0.375 32.25 C0.189375 33.24 0.00375 34.23 -0.1875 35.25 C-0.991875 35.559375 -1.79625 35.86875 -2.625 36.1875 C-3.470625 36.538125 -4.31625 36.88875 -5.1875 37.25 C-5.89241267 39.57206525 -6.55962429 41.90593068 -7.1875 44.25 C-9.38819462 46.0105557 -10.46049527 46.29406089 -13.25 46.125 C-15.89131503 44.93214805 -16.80935911 43.79956064 -18.1875 41.25 C-18.1875 39.25 -18.1875 37.25 -18.1875 35.25 C-18.6825 34.775625 -19.1775 34.30125 -19.6875 33.8125 C-22.08090815 31.31936651 -21.24782135 28.5676745 -21.1875 25.25 C-21.8475 24.59 -22.5075 23.93 -23.1875 23.25 C-23.3125 19.625 -23.3125 19.625 -23.1875 16.25 C-24.8375 16.58 -26.4875 16.91 -28.1875 17.25 C-27.77346686 11.97107745 -27.12586608 8.89298863 -23.1875 5.25 C-15.40863163 1.00308106 -8.73966141 0.04858742 0 0 Z M-4.1875 7.25 C-4.1875 8.24 -4.1875 9.23 -4.1875 10.25 C-0.95958445 12.4019437 0.09650809 12.45086443 3.8125 12.25 C4.1425 11.59 4.4725 10.93 4.8125 10.25 C4.4825 9.26 4.1525 8.27 3.8125 7.25 C-0.28973585 6.23459888 -0.28973585 6.23459888 -4.1875 7.25 Z M-14.1875 19.25 C-14.60530879 21.62305578 -14.60530879 21.62305578 -14.1875 24.25 C-12.08049553 26.34762034 -12.08049553 26.34762034 -9.1875 27.25 C-6.40526622 26.55514736 -6.40526622 26.55514736 -4.1875 25.25 C-3.9372843 22.33365871 -3.9372843 22.33365871 -4.1875 19.25 C-8.30202026 16.5069865 -10.07582698 16.98149075 -14.1875 19.25 Z " fill="#6DA64E" transform="translate(55.1875,0.75)"/>
<path d="M0 0 C0.495 1.98 0.495 1.98 1 4 C2.258125 3.938125 3.51625 3.87625 4.8125 3.8125 C8.74831894 3.79171222 8.74831894 3.79171222 10.8125 5.5 C11.4003125 6.2425 11.4003125 6.2425 12 7 C12.99 7 13.98 7 15 7 C15.33 5.35 15.66 3.7 16 2 C17.65 1.67 19.3 1.34 21 1 C21 2.32 21 3.64 21 5 C21.99 5.495 21.99 5.495 23 6 C22.34 6 21.68 6 21 6 C20.731875 6.639375 20.46375 7.27875 20.1875 7.9375 C19 10 19 10 16 11 C15.690625 11.639375 15.38125 12.27875 15.0625 12.9375 C13.7657662 15.45468915 12.5778263 15.96886948 10 17 C10.99 17 11.98 17 13 17 C14.6875 19 14.6875 19 16 21 C14.6875 22.5 14.6875 22.5 13 24 C12.01 24 11.02 24 10 24 C9.34 24.99 8.68 25.98 8 27 C7.34 26.67 6.68 26.34 6 26 C5.375 23.4375 5.375 23.4375 5 21 C4.01 20.67 3.02 20.34 2 20 C2.495 24.455 2.495 24.455 3 29 C1.35 29 -0.3 29 -2 29 C-2 28.01 -2 27.02 -2 26 C-2.99 25.34 -3.98 24.68 -5 24 C-5 23.34 -5 22.68 -5 22 C-5.66 22 -6.32 22 -7 22 C-7.2475 22.598125 -7.495 23.19625 -7.75 23.8125 C-9.77576002 27.35758004 -12.17994156 28.72664719 -16 30 C-23.05061082 30.47469459 -23.05061082 30.47469459 -26 29 C-26.87154864 26.14765899 -27.06577404 24.30694552 -26.4375 21.375 C-25.66787181 18.74391286 -25.66787181 18.74391286 -28 16 C-28.78375 16.99 -29.5675 17.98 -30.375 19 C-31.24125 19.99 -32.1075 20.98 -33 22 C-33.66 22 -34.32 22 -35 22 C-33.77526616 17.50930926 -32.3817121 15.15626462 -29 12 C-29 11.34 -29 10.68 -29 10 C-29.37511719 10.48210937 -29.75023437 10.96421875 -30.13671875 11.4609375 C-35.47267547 18.04687905 -35.47267547 18.04687905 -40 19 C-42.3125 18.625 -42.3125 18.625 -44 18 C-45.47742793 14.15868739 -44.3587688 11.7565961 -43 8 C-43 7.01 -43 6.02 -43 5 C-40.11165997 2.89229241 -38.61537605 2 -35 2 C-35 2.99 -35 3.98 -35 5 C-33.9275 4.835 -32.855 4.67 -31.75 4.5 C-28 4 -28 4 -24 4 C-23.67 4.66 -23.34 5.32 -23 6 C-22.401875 5.34 -21.80375 4.68 -21.1875 4 C-19 2 -19 2 -16 2 C-16.68757295 6.49343448 -19.00898905 7.84971422 -22.50390625 10.4375 C-24.46106103 12.1209822 -24.46106103 12.1209822 -24 16 C-23.071875 15.154375 -22.14375 14.30875 -21.1875 13.4375 C-19.60546875 11.99609375 -19.60546875 11.99609375 -18 11 C-17.01 11.33 -16.02 11.66 -15 12 C-13.845 11.95875 -12.69 11.9175 -11.5 11.875 C-8 12 -8 12 -6.0625 13.3125 C-5 15 -5 15 -5 18 C-4.34 17.67 -3.68 17.34 -3 17 C-3.34444881 14.52733235 -3.34444881 14.52733235 -4 12 C-4.66 11.67 -5.32 11.34 -6 11 C-6 8.69 -6 6.38 -6 4 C-4.02 3.34 -2.04 2.68 0 2 C0 1.34 0 0.68 0 0 Z M-39 9 C-41.47730384 11.55988064 -42 12.38813866 -42 16 C-37.14957612 15.58424938 -35.15680495 13.58340022 -32 10 C-31.34 9.01 -30.68 8.02 -30 7 C-33.47684256 7 -35.7936343 7.66401429 -39 9 Z M-17 15 C-22.14396127 20.1762506 -22.14396127 20.1762506 -24 27 C-22.84254513 28.36997745 -22.84254513 28.36997745 -19.6875 28.3125 C-16.01021785 28.33138064 -16.01021785 28.33138064 -13.6875 26.25 C-11.26322542 23.0176339 -10 21.09056536 -10 17 C-12.31 16.34 -14.62 15.68 -17 15 Z " fill="#6FA74F" transform="translate(68,66)"/>
<path d="M0 0 C3.73758545 1.24586182 4.27312884 2.8790456 6.0078125 6.26904297 C6.35585937 6.98463379 6.70390625 7.70022461 7.0625 8.4375 C7.59810547 9.53022217 7.59810547 9.53022217 8.14453125 10.64501953 C13.59700199 22.117079 14.94331202 34.75858791 11 47 C5.13095654 60.32822186 5.13095654 60.32822186 1 65 C0.34 65 -0.32 65 -1 65 C-1.23074219 65.58523437 -1.46148437 66.17046875 -1.69921875 66.7734375 C-3.33107958 69.5667128 -5.14585645 70.80992328 -7.8125 72.625 C-9.09060547 73.51058594 -9.09060547 73.51058594 -10.39453125 74.4140625 C-15.07557305 77.26339229 -18.50827117 78.25542925 -24 78 C-22.515 77.505 -22.515 77.505 -21 77 C-21 75.68 -21 74.36 -21 73 C-20.34 73 -19.68 73 -19 73 C-18.505 72.01 -18.505 72.01 -18 71 C-18 71.99 -18 72.98 -18 74 C-16.515 73.505 -16.515 73.505 -15 73 C-14.67 72.01 -14.34 71.02 -14 70 C-13.01 70.66 -12.02 71.32 -11 72 C-10.06576355 68.98968256 -9.95550089 68.13349732 -11 65 C-11.99 65 -12.98 65 -14 65 C-13.67 64.34 -13.34 63.68 -13 63 C-12.01 63 -11.02 63 -10 63 C-9.7525 62.21625 -9.505 61.4325 -9.25 60.625 C-8 58 -8 58 -5.9375 57.125 C-5.298125 56.75375 -4.65875 56.3825 -4 56 C-3.18129815 52.43793339 -3.18129815 52.43793339 -3 49 C-4.98 49.495 -4.98 49.495 -7 50 C-7 49.34 -7 48.68 -7 48 C-5.515 47.505 -5.515 47.505 -4 47 C-2.62804426 45.70644173 -1.28817344 44.37701298 0 43 C-0.33 42.34 -0.66 41.68 -1 41 C0.32 41 1.64 41 3 41 C3.33 38.36 3.66 35.72 4 33 C5.485 32.505 5.485 32.505 7 32 C7.33 30.35 7.66 28.7 8 27 C8.33 27 8.66 27 9 27 C9.26932521 22.34947128 9.26932521 22.34947128 8 18 C7.67 19.65 7.34 21.3 7 23 C5.68 22.67 4.36 22.34 3 22 C3.66 21.67 4.32 21.34 5 21 C6.18435359 16.69002151 6.45480168 13.06120391 4.6875 8.9375 C4.130625 8.298125 3.57375 7.65875 3 7 C2.34 7 1.68 7 1 7 C0.67 4.69 0.34 2.38 0 0 Z " fill="#70A851" transform="translate(92,18)"/>
<path d="M0 0 C4.875 0.875 4.875 0.875 6 2 C6.33 1.34 6.66 0.68 7 0 C11.29 0 15.58 0 20 0 C20 2.31 20 4.62 20 7 C18.35 7 16.7 7 15 7 C15 7.66 15 8.32 15 9 C16.98 9 18.96 9 21 9 C21 6.03 21 3.06 21 0 C27.8359375 -0.1953125 27.8359375 -0.1953125 30 0 C30.66 0.66 31.32 1.32 32 2 C32.33 1.34 32.66 0.68 33 0 C40.3028169 -0.35915493 40.3028169 -0.35915493 43.0625 1.0625 C44.59987081 4.23973301 43.8466463 6.67388953 43 10 C39.10166715 12.59888857 37.5159286 11.70074754 33 11 C32.071875 11.185625 31.14375 11.37125 30.1875 11.5625 C29.465625 11.706875 28.74375 11.85125 28 12 C27.34 11.34 26.68 10.68 26 10 C25.67 10.66 25.34 11.32 25 12 C22.22890693 12.05392397 19.45886182 12.09363455 16.6875 12.125 C15.90181641 12.14175781 15.11613281 12.15851563 14.30664062 12.17578125 C13.54931641 12.18222656 12.79199219 12.18867187 12.01171875 12.1953125 C10.96697388 12.21102295 10.96697388 12.21102295 9.90112305 12.22705078 C8 12 8 12 5 10 C4.67 10.66 4.34 11.32 4 12 C2.68 12 1.36 12 0 12 C0.350625 11.2575 0.70125 10.515 1.0625 9.75 C2.06789411 6.80084393 2.04332005 5.84541832 1 3 C0.67 2.01 0.34 1.02 0 0 Z M10 2 C10 2.66 10 3.32 10 4 C9.34 4 8.68 4 8 4 C8 4.99 8 5.98 8 7 C8.66 7 9.32 7 10 7 C10.33 7.66 10.66 8.32 11 9 C11 6.69 11 4.38 11 2 C10.67 2 10.34 2 10 2 Z M25 3 C25 3.99 25 4.98 25 6 C25.99 5.67 26.98 5.34 28 5 C28 4.34 28 3.68 28 3 C27.01 3 26.02 3 25 3 Z M36 3 C35.67 4.65 35.34 6.3 35 8 C36.32 8.33 37.64 8.66 39 9 C39.33 7.35 39.66 5.7 40 4 C38.68 3.67 37.36 3.34 36 3 Z M30 7 C31 9 31 9 31 9 Z " fill="#6EA74F" transform="translate(63,99)"/>
<path d="M0 0 C2.3125 1.5 2.3125 1.5 4 3 C4.556875 2.46375 5.11375 1.9275 5.6875 1.375 C6.450625 0.92125 7.21375 0.4675 8 0 C10.5625 0.8125 10.5625 0.8125 13 2 C15.92987858 2.24041631 15.92987858 2.24041631 17.9375 0.9375 C20 0 20 0 22.125 0.25 C24 1 24 1 26 3 C26.31537716 7.33643601 26.44897847 9.32653229 24 13 C19.78985691 13.68272591 17.43507696 12.35548134 14 10 C13.443125 10.53625 12.88625 11.0725 12.3125 11.625 C11.549375 12.07875 10.78625 12.5325 10 13 C7.4375 12.1875 7.4375 12.1875 5 11 C2.07012142 10.75958369 2.07012142 10.75958369 0.0625 12.0625 C-2 13 -2 13 -4.125 12.75 C-6 12 -6 12 -8 10 C-8.55416667 3.90416667 -8.55416667 3.90416667 -6.8125 1.0625 C-4.32331087 -0.39667983 -2.84547976 -0.41641167 0 0 Z " fill="#689850" transform="translate(35,53)"/>
<path d="M0 0 C0 0.99 0 1.98 0 3 C1.0725 2.835 2.145 2.67 3.25 2.5 C7 2 7 2 11 2 C11.33 2.66 11.66 3.32 12 4 C12.598125 3.34 13.19625 2.68 13.8125 2 C16 0 16 0 19 0 C18.31242705 4.49343448 15.99101095 5.84971422 12.49609375 8.4375 C10.53893897 10.1209822 10.53893897 10.1209822 11 14 C11.94875 13.175 12.8975 12.35 13.875 11.5 C16.75 9 16.75 9 19 9 C17.49860488 13.20390632 14.82724957 14.89110738 11 17 C10.01 16.67 9.02 16.34 8 16 C7.67 15.34 7.34 14.68 7 14 C6.21625 14.99 5.4325 15.98 4.625 17 C3.75875 17.99 2.8925 18.98 2 20 C1.34 20 0.68 20 0 20 C1.22473384 15.50930926 2.6182879 13.15626462 6 10 C6 9.34 6 8.68 6 8 C5.62488281 8.48210937 5.24976563 8.96421875 4.86328125 9.4609375 C-0.47267547 16.04687905 -0.47267547 16.04687905 -5 17 C-7.3125 16.625 -7.3125 16.625 -9 16 C-10.47742793 12.15868739 -9.3587688 9.7565961 -8 6 C-8 5.01 -8 4.02 -8 3 C-5.11165997 0.89229241 -3.61537605 0 0 0 Z M-4 7 C-6.47730384 9.55988064 -7 10.38813866 -7 14 C-2.14957612 13.58424938 -0.15680495 11.58340022 3 8 C3.66 7.01 4.32 6.02 5 5 C1.52315744 5 -0.7936343 5.66401429 -4 7 Z " fill="#EA6519" transform="translate(33,68)"/>
<path d="M0 0 C6.27 0 12.54 0 19 0 C19.33 2.31 19.66 4.62 20 7 C21.32 4.69 22.64 2.38 24 0 C24.99 0 25.98 0 27 0 C27.99 2.31 28.98 4.62 30 7 C30.309375 6.030625 30.61875 5.06125 30.9375 4.0625 C32 1 32 1 33 0 C35.67058851 -0.14115161 38.32432238 -0.04247107 41 0 C41 0.99 41 1.98 41 3 C39.02 3 37.04 3 35 3 C34.4465236 5.07553648 34 6.84365964 34 9 C36.31 9 38.62 9 41 9 C41 9.66 41 10.32 41 11 C36.93631321 11.77403558 33.13574827 12.0984702 29 12 C28.67 11.01 28.34 10.02 28 9 C25.52733235 9.34444881 25.52733235 9.34444881 23 10 C22.67 10.66 22.34 11.32 22 12 C19.75 12.25 19.75 12.25 17 12 C14.6875 10 14.6875 10 13 8 C13 9.32 13 10.64 13 12 C12.01 12 11.02 12 10 12 C10 8.7 10 5.4 10 2 C8.68 2 7.36 2 6 2 C6 5.3 6 8.6 6 12 C5.34 12 4.68 12 4 12 C4 8.7 4 5.4 4 2 C2.68 2 1.36 2 0 2 C0 1.34 0 0.68 0 0 Z M13 2 C13 3.32 13 4.64 13 6 C14.32 6 15.64 6 17 6 C16.67 4.68 16.34 3.36 16 2 C15.01 2 14.02 2 13 2 Z M25 4 C24.67 4.99 24.34 5.98 24 7 C24.99 6.67 25.98 6.34 27 6 C26.34 5.34 25.68 4.68 25 4 Z " fill="#EB6519" transform="translate(11,99)"/>
<path d="M0 0 C1.625 1.4375 1.625 1.4375 3 3 C3.99 3.33 4.98 3.66 6 4 C6.33 6.31 6.66 8.62 7 11 C7.99 11 8.98 11 10 11 C10 11.66 10 12.32 10 13 C9.236875 12.67 8.47375 12.34 7.6875 12 C5.00930865 10.82563314 5.00930865 10.82563314 2 11 C1.360625 11.350625 0.72125 11.70125 0.0625 12.0625 C-2 13 -2 13 -4.125 12.75 C-6 12 -6 12 -8 10 C-8.55416667 3.90416667 -8.55416667 3.90416667 -6.8125 1.0625 C-4.33950907 -0.38718434 -2.82115488 -0.42317323 0 0 Z " fill="#485F38" transform="translate(35,53)"/>
<path d="M0 0 C2.70313576 -0.21917317 4.43958382 -0.32851983 6.8125 1.0625 C8.65150018 4.06297398 8.30671285 6.56481613 8 10 C7.01 11.485 7.01 11.485 6 13 C2.37240125 13.70536642 0.93998579 12.96602969 -2.3125 11.125 C-3.199375 10.42375 -4.08625 9.7225 -5 9 C-5 8.34 -5 7.68 -5 7 C-3.35 6.67 -1.7 6.34 0 6 C0 4.68 0 3.36 0 2 C0 1.34 0 0.68 0 0 Z " fill="#436434" transform="translate(53,53)"/>
<path d="M0 0 C0 0.99 0 1.98 0 3 C0.31088368 4.67099977 0.64080332 6.33871537 1 8 C-12.78199659 19.67448805 -12.78199659 19.67448805 -22 19 C-21.01 18.67 -20.02 18.34 -19 18 C-19 16.68 -19 15.36 -19 14 C-18.34 14 -17.68 14 -17 14 C-16.67 13.34 -16.34 12.68 -16 12 C-16 12.99 -16 13.98 -16 15 C-15.01 14.67 -14.02 14.34 -13 14 C-12.67 13.01 -12.34 12.02 -12 11 C-11.01 11.66 -10.02 12.32 -9 13 C-8.67 12.01 -8.34 11.02 -8 10 C-7.35417969 9.855625 -6.70835938 9.71125 -6.04296875 9.5625 C-5.03169922 9.2840625 -5.03169922 9.2840625 -4 9 C-2.90441185 7.18485295 -2.90441185 7.18485295 -2.3125 5 C-1.04986877 1.04986877 -1.04986877 1.04986877 0 0 Z " fill="#7FB164" transform="translate(90,77)"/>
<path d="M0 0 C0.93134766 -0.00322266 1.86269531 -0.00644531 2.82226562 -0.00976562 C9.66056871 0.04454581 9.66056871 0.04454581 13.0625 2.3125 C12.06089844 2.28929687 11.05929688 2.26609375 10.02734375 2.2421875 C8.68490336 2.22341211 7.34245482 2.20521382 6 2.1875 C4.68902344 2.16429687 3.37804687 2.14109375 2.02734375 2.1171875 C-2.6392476 2.34706885 -6.74402223 3.21576111 -10.9375 5.3125 C-13.0625 4.875 -13.0625 4.875 -14.9375 4.3125 C-14.9375 4.9725 -14.9375 5.6325 -14.9375 6.3125 C-15.5975 6.3125 -16.2575 6.3125 -16.9375 6.3125 C-16.9375 5.6525 -16.9375 4.9925 -16.9375 4.3125 C-17.5975 4.3125 -18.2575 4.3125 -18.9375 4.3125 C-18.9375 4.9725 -18.9375 5.6325 -18.9375 6.3125 C-20.5875 6.3125 -22.2375 6.3125 -23.9375 6.3125 C-18.12959449 -0.34023409 -8.18961435 -0.14593041 0 0 Z " fill="#82B368" transform="translate(55.9375,0.6875)"/>
<path d="M0 0 C0.33 0.66 0.66 1.32 1 2 C0.01858408 4.6714675 -1.02652533 7.22050288 -2.1875 9.8125 C-2.64479492 10.88081055 -2.64479492 10.88081055 -3.11132812 11.97070312 C-4.94158869 16.11852632 -6.84072972 19.67066548 -10 23 C-10.66 23 -11.32 23 -12 23 C-11.505 18.545 -11.505 18.545 -11 14 C-9.68 14 -8.36 14 -7 14 C-6.4254048 10.26513121 -6 6.78706732 -6 3 C-4.68 3 -3.36 3 -2 3 C-1.34 2.01 -0.68 1.02 0 0 Z " fill="#76AC59" transform="translate(103,60)"/>
<path d="M0 0 C2.97 0 5.94 0 9 0 C9 0.66 9 1.32 9 2 C6.69 2 4.38 2 2 2 C2 2.99 2 3.98 2 5 C3.98 5 5.96 5 8 5 C8 5.66 8 6.32 8 7 C6.02 7 4.04 7 2 7 C2 7.99 2 8.98 2 10 C4.31 10 6.62 10 9 10 C9 10.66 9 11.32 9 12 C6.03 12 3.06 12 0 12 C0 8.04 0 4.08 0 0 Z " fill="#EA661B" transform="translate(53,99)"/>
<path d="M0 0 C1.65 0 3.3 0 5 0 C5.77321882 2.98241547 6.41196203 5.97580475 7 9 C5.02 9 3.04 9 1 9 C1 7.68 1 6.36 1 5 C0.69595322 3.32774271 0.36871088 1.65919896 0 0 Z " fill="#344729" transform="translate(53,53)"/>
<path d="M0 0 C0.33 0.99 0.66 1.98 1 3 C1.66 3.33 2.32 3.66 3 4 C2.67 4.66 2.34 5.32 2 6 C4.97 6 7.94 6 11 6 C9.8125 8 9.8125 8 8 10 C5.15130656 10.49852135 3.68780874 10.40319823 1.1875 8.9375 C-0.60842137 6.00731249 -0.18977574 3.3527047 0 0 Z " fill="#5A8243" transform="translate(27,56)"/>
<path d="M0 0 C0.66 0.33 1.32 0.66 2 1 C2 1.66 2 2.32 2 3 C2.99 2.67 3.98 2.34 5 2 C5.66 3.32 6.32 4.64 7 6 C5.02 6.99 5.02 6.99 3 8 C3 7.34 3 6.68 3 6 C2.01 6.33 1.02 6.66 0 7 C-0.38133299 5.0085944 -0.71325582 3.00720923 -1 1 C-0.67 0.67 -0.34 0.34 0 0 Z " fill="#73A759" transform="translate(42,57)"/>
<path d="M0 0 C0.33 0 0.66 0 1 0 C1.33 2.31 1.66 4.62 2 7 C2.99 7 3.98 7 5 7 C5 7.66 5 8.32 5 9 C3.948125 8.566875 3.948125 8.566875 2.875 8.125 C-0.05452503 6.97866412 -3.00921653 5.97374346 -6 5 C-5.67 4.01 -5.34 3.02 -5 2 C-3.35 2 -1.7 2 0 2 C0 1.34 0 0.68 0 0 Z " fill="#50733C" transform="translate(40,57)"/>
<path d="M0 0 C1.2065625 0.0309375 1.2065625 0.0309375 2.4375 0.0625 C2.4375 1.7125 2.4375 3.3625 2.4375 5.0625 C0.7875 5.0625 -0.8625 5.0625 -2.5625 5.0625 C-3.125 3.125 -3.125 3.125 -3.5625 1.0625 C-2.5625 0.0625 -2.5625 0.0625 0 0 Z " fill="#70AB59" transform="translate(82.5625,113.9375)"/>
<path d="M0 0 C1.65 0 3.3 0 5 0 C5 1.65 5 3.3 5 5 C3.35 5 1.7 5 0 5 C0 3.35 0 1.7 0 0 Z " fill="#70AB58" transform="translate(86,114)"/>
<path d="M0 0 C1.485 0.99 1.485 0.99 3 2 C3.1875 5.625 3.1875 5.625 3 9 C1.68 9.33 0.36 9.66 -1 10 C-0.67 9.34 -0.34 8.68 0 8 C0.66 8 1.32 8 2 8 C2 7.34 2 6.68 2 6 C1.34 5.67 0.68 5.34 0 5 C-0.33 4.67 -0.66 4.34 -1 4 C-0.5625 1.9375 -0.5625 1.9375 0 0 Z " fill="#69A051" transform="translate(58,54)"/>
<path d="M0 0 C2.475 0.495 2.475 0.495 5 1 C4.67 2.32 4.34 3.64 4 5 C2.68 5 1.36 5 0 5 C0 3.35 0 1.7 0 0 Z " fill="#6EAA56" transform="translate(99,114)"/>
<path d="M0 0 C1.98 0.495 1.98 0.495 4 1 C3.67 2.32 3.34 3.64 3 5 C1.68 5 0.36 5 -1 5 C-0.67 3.35 -0.34 1.7 0 0 Z " fill="#70AB58" transform="translate(94,114)"/>
<path d="M0 0 C1.98 0.495 1.98 0.495 4 1 C4 2.32 4 3.64 4 5 C2.35 4.67 0.7 4.34 -1 4 C-0.67 2.68 -0.34 1.36 0 0 Z " fill="#6FAA57" transform="translate(74,114)"/>
<path d="M0 0 C3.057952 1.73559438 5.63379989 3.38472619 8 6 C7.67 6.66 7.34 7.32 7 8 C1.25 4.25 1.25 4.25 -1 2 C-0.67 1.34 -0.34 0.68 0 0 Z " fill="#81B366" transform="translate(84,10)"/>
<path d="M0 0 C1.98 0.495 1.98 0.495 4 1 C3.67 2.32 3.34 3.64 3 5 C1.68 5 0.36 5 -1 5 C-0.67 3.35 -0.34 1.7 0 0 Z " fill="#E8722B" transform="translate(59,114)"/>
<path d="M0 0 C0.99 0.66 1.98 1.32 3 2 C2.67 2.99 2.34 3.98 2 5 C0.02 5 -1.96 5 -4 5 C-4 4.34 -4 3.68 -4 3 C-2 1.375 -2 1.375 0 0 Z " fill="#537842" transform="translate(52,54)"/>
<path d="M0 0 C2.64 0 5.28 0 8 0 C8 0.99 8 1.98 8 3 C5.03 2.67 2.06 2.34 -1 2 C-0.67 1.34 -0.34 0.68 0 0 Z " fill="#76AC58" transform="translate(65,3)"/>
<path d="M0 0 C1.98 0.495 1.98 0.495 4 1 C3.67 2.32 3.34 3.64 3 5 C1.68 4.67 0.36 4.34 -1 4 C-0.67 2.68 -0.34 1.36 0 0 Z " fill="#EC6E27" transform="translate(7,114)"/>
<path d="M0 0 C1.32 0 2.64 0 4 0 C4 1.65 4 3.3 4 5 C2.68 5 1.36 5 0 5 C0 3.35 0 1.7 0 0 Z " fill="#EC7734" transform="translate(39,114)"/>
<path d="M0 0 C0.33 0 0.66 0 1 0 C1 2.31 1 4.62 1 7 C-0.98 7 -2.96 7 -5 7 C-4.01 6.67 -3.02 6.34 -2 6 C-2 4.68 -2 3.36 -2 2 C-1.34 2 -0.68 2 0 2 C0 1.34 0 0.68 0 0 Z " fill="#7CAF60" transform="translate(73,89)"/>
<path d="M0 0 C0.99 0.33 1.98 0.66 3 1 C3.6875 3.0625 3.6875 3.0625 4 5 C2.35 5 0.7 5 -1 5 C-0.67 3.35 -0.34 1.7 0 0 Z " fill="#EC722C" transform="translate(34,114)"/>
<path d="M0 0 C0.66 0.66 1.32 1.32 2 2 C2.99 2.33 3.98 2.66 5 3 C5 3.66 5 4.32 5 5 C3.02 5 1.04 5 -1 5 C-1 1 -1 1 0 0 Z " fill="#414A3A" transform="translate(55,57)"/>
<path d="M0 0 C0.99 0.33 1.98 0.66 3 1 C3 2.32 3 3.64 3 5 C1.68 5 0.36 5 -1 5 C-0.67 3.35 -0.34 1.7 0 0 Z " fill="#6EAA56" transform="translate(69,114)"/>
<path d="M0 0 C1.32 0 2.64 0 4 0 C3.67 1.65 3.34 3.3 3 5 C2.34 5 1.68 5 1 5 C0.67 3.35 0.34 1.7 0 0 Z " fill="#72AC5B" transform="translate(114,114)"/>
<path d="M0 0 C1.32 0.33 2.64 0.66 4 1 C3.67 1.99 3.34 2.98 3 4 C2.01 4.33 1.02 4.66 0 5 C0 3.35 0 1.7 0 0 Z " fill="#EC6E28" transform="translate(1,114)"/>
<path d="M0 0 C1.32 0 2.64 0 4 0 C3.67 1.65 3.34 3.3 3 5 C2.34 5 1.68 5 1 5 C0.67 3.35 0.34 1.7 0 0 Z " fill="#E9742E" transform="translate(53,114)"/>
<path d="M0 0 C1.32 0 2.64 0 4 0 C3.67 1.65 3.34 3.3 3 5 C2.34 5 1.68 5 1 5 C0.67 3.35 0.34 1.7 0 0 Z " fill="#71AC5A" transform="translate(109,114)"/>
<path d="M0 0 C1.32 0 2.64 0 4 0 C3.67 1.65 3.34 3.3 3 5 C2.34 5 1.68 5 1 5 C0.67 3.35 0.34 1.7 0 0 Z " fill="#EC712B" transform="translate(28,114)"/>
<path d="M0 0 C0.99 0 1.98 0 3 0 C3.33 1.65 3.66 3.3 4 5 C2.68 5 1.36 5 0 5 C0 3.35 0 1.7 0 0 Z " fill="#EC712B" transform="translate(23,114)"/>
<path d="M0 0 C0.66 0 1.32 0 2 0 C2.33 1.65 2.66 3.3 3 5 C2.01 5 1.02 5 0 5 C0 3.35 0 1.7 0 0 Z " fill="#EC722B" transform="translate(18,114)"/>
<path d="M0 0 C1.32 0 2.64 0 4 0 C3.67 1.65 3.34 3.3 3 5 C2.67 4.01 2.34 3.02 2 2 C1.34 2 0.68 2 0 2 C0 1.34 0 0.68 0 0 Z " fill="#EC7530" transform="translate(44,114)"/>
<path d="M0 0 C0.66 0 1.32 0 2 0 C2 1.65 2 3.3 2 5 C1.34 5 0.68 5 0 5 C0 3.35 0 1.7 0 0 Z " fill="#7FB369" transform="translate(105,114)"/>
<path d="M0 0 C0.33 0.99 0.66 1.98 1 3 C1.66 3 2.32 3 3 3 C3 3.66 3 4.32 3 5 C2.01 5 1.02 5 0 5 C0 3.35 0 1.7 0 0 Z " fill="#EC6F28" transform="translate(13,114)"/>
</svg>
